<svg width="24" height="24" viewBox="0 0 24 24" fill="none" xmlns="http://www.w3.org/2000/svg">
<mask id="path-1-inside-1_1_3300" fill="white">
<path d="M20.0967 2.55615C21.7001 2.5562 23 3.85603 23 5.45947V9.48239C23 9.82464 22.6455 10.0623 22.3033 10.0582C22.2956 10.0582 22.288 10.0581 22.2803 10.0581C21.2079 10.0581 20.3389 10.9281 20.3389 12.0005C20.3391 13.0727 21.208 13.9419 22.2803 13.9419C22.288 13.9419 22.2957 13.9418 22.3033 13.9418C22.6456 13.9376 23 14.1745 23 14.5168V18.5405C23 20.144 21.7001 21.4438 20.0967 21.4438H3.90332C2.29987 21.4438 1.00003 20.144 1 18.5405V14.4371C1 14.1476 1.28468 13.9418 1.57422 13.9419C2.64646 13.9419 3.51635 13.0727 3.5166 12.0005C3.5166 10.9281 2.64662 10.0581 1.57422 10.0581C1.28474 10.0582 1 9.85155 1 9.56208V5.45947C1.00005 3.85604 2.29988 2.5562 3.90332 2.55615H20.0967Z"/>
</mask>
<path d="M20.0967 2.55615L20.0967 1.05615H20.0967V2.55615ZM23 5.45947H24.5V5.45943L23 5.45947ZM22.2803 10.0581V8.55811H22.2803L22.2803 10.0581ZM20.3389 12.0005H18.8389V12.0008L20.3389 12.0005ZM22.2803 13.9419L22.2803 15.4419H22.2803V13.9419ZM23 18.5405L24.5 18.5406V18.5405H23ZM20.0967 21.4438V22.9438H20.0967L20.0967 21.4438ZM3.90332 21.4438L3.90328 22.9438H3.90332V21.4438ZM1 18.5405H-0.5V18.5406L1 18.5405ZM3.5166 12.0005L5.0166 12.0008V12.0005H3.5166ZM1 5.45947L-0.5 5.45943V5.45947H1ZM3.90332 2.55615V1.05615H3.90328L3.90332 2.55615ZM22.3033 13.9418L22.3214 15.4416L22.3033 13.9418ZM22.3033 10.0582L22.2856 11.5581L22.3033 10.0582ZM20.0967 2.55615L20.0966 4.05615C20.8717 4.05617 21.5 4.68447 21.5 5.45952L23 5.45947L24.5 5.45943C24.4999 3.0276 22.5286 1.05622 20.0967 1.05615L20.0967 2.55615ZM23 5.45947H21.5V9.48239H23H24.5V5.45947H23ZM22.3033 10.0582L22.321 8.55835C22.3074 8.55819 22.2939 8.55811 22.2803 8.55811V10.0581V11.5581C22.2821 11.5581 22.2838 11.5581 22.2856 11.5581L22.3033 10.0582ZM22.2803 10.0581L22.2803 8.55811C20.3785 8.55812 18.8389 10.1006 18.8389 12.0005H20.3389H21.8389C21.8389 11.7556 22.0373 11.5581 22.2803 11.5581L22.2803 10.0581ZM20.3389 12.0005L18.8389 12.0008C18.8393 13.9008 20.3793 15.4419 22.2803 15.4419L22.2803 13.9419L22.2803 12.4419C22.0368 12.4419 21.8389 12.2445 21.8389 12.0001L20.3389 12.0005ZM22.2803 13.9419V15.4419C22.294 15.4419 22.3077 15.4418 22.3214 15.4416L22.3033 13.9418L22.2853 12.4419C22.2836 12.4419 22.282 12.4419 22.2803 12.4419V13.9419ZM23 14.5168H21.5V18.5405H23H24.5V14.5168H23ZM23 18.5405L21.5 18.5405C21.5 19.3155 20.8717 19.9438 20.0966 19.9438L20.0967 21.4438L20.0967 22.9438C22.5286 22.9438 24.5 20.9724 24.5 18.5406L23 18.5405ZM20.0967 21.4438V19.9438H3.90332V21.4438V22.9438H20.0967V21.4438ZM3.90332 21.4438L3.90336 19.9438C3.12829 19.9438 2.50001 19.3155 2.5 18.5405L1 18.5405L-0.5 18.5406C-0.499954 20.9724 1.47145 22.9438 3.90328 22.9438L3.90332 21.4438ZM1 18.5405H2.5V14.4371H1H-0.5V18.5405H1ZM1.57422 13.9419V15.4419C3.47426 15.4419 5.01615 13.9018 5.0166 12.0008L3.5166 12.0005L2.0166 12.0001C2.01654 12.2435 1.81866 12.4419 1.57422 12.4419V13.9419ZM3.5166 12.0005H5.0166C5.0166 10.0997 3.47504 8.55811 1.57422 8.55811V10.0581V11.5581C1.81819 11.5581 2.0166 11.7565 2.0166 12.0005H3.5166ZM1 9.56208H2.5V5.45947H1H-0.5V9.56208H1ZM1 5.45947L2.5 5.45952C2.50002 4.68447 3.12832 4.05617 3.90336 4.05615L3.90332 2.55615L3.90328 1.05615C1.47144 1.05622 -0.499927 3.0276 -0.5 5.45943L1 5.45947ZM3.90332 2.55615V4.05615H20.0967V2.55615V1.05615H3.90332V2.55615ZM1.57422 10.0581L1.57391 8.55811C1.77088 8.55806 1.96407 8.62329 2.1283 8.75764C2.30402 8.90138 2.5 9.17892 2.5 9.56208H1H-0.5C-0.5 10.9475 0.751991 11.5583 1.57453 11.5581L1.57422 10.0581ZM1 14.4371H2.5C2.5 14.8206 2.30362 15.0988 2.12693 15.243C1.96206 15.3776 1.76917 15.4419 1.57391 15.4419L1.57422 13.9419L1.57453 12.4419C0.755522 12.4417 -0.5 13.0487 -0.5 14.4371H1ZM22.3033 13.9418L22.3214 15.4416C22.1602 15.4436 22.0037 15.3951 21.8631 15.2865C21.7105 15.1686 21.5 14.9068 21.5 14.5168H23H24.5C24.5 13.7845 24.1123 13.2331 23.697 12.9123C23.2936 12.6007 22.7887 12.4358 22.2853 12.4419L22.3033 13.9418ZM23 9.48239H21.5C21.5 9.09261 21.7102 8.83133 21.862 8.71391C22.002 8.6055 22.1587 8.55643 22.321 8.55835L22.3033 10.0582L22.2856 11.5581C22.7901 11.5641 23.2951 11.3982 23.698 11.0864C24.1125 10.7656 24.5 10.2144 24.5 9.48239H23Z" fill="#48662B" mask="url(#path-1-inside-1_1_3300)"/>
<path d="M15.1777 3.92871L15.1777 20.0666" stroke="#48662B" stroke-width="1.5" stroke-linecap="round" stroke-linejoin="round" stroke-dasharray="4.84 4.36"/>
</svg>
