<svg width="22" height="15" viewBox="0 0 22 15" fill="none" xmlns="http://www.w3.org/2000/svg">
<path d="M11.1367 0.637207C14.8279 0.637381 17.8203 3.62888 17.8203 7.31885C17.8202 11.0087 14.8279 14.0003 11.1367 14.0005C7.44541 14.0005 4.45322 11.0088 4.45312 7.31885C4.45312 3.62877 7.44535 0.637207 11.1367 0.637207Z" stroke="#FF4500" stroke-width="1.27288"/>
<path d="M19.0902 0.636719C20.2572 2.01551 21.6363 4.13672 21.6363 7.31854C21.6363 9.54581 20.3633 12.7276 19.0902 13.6822" stroke="#FF4500" stroke-width="1.27288" stroke-linecap="round"/>
<path d="M3.1825 13.6819C2.01554 12.3031 0.636411 10.1819 0.636411 7.00007C0.636411 4.77279 1.90945 1.59097 3.1825 0.636429" stroke="#FF4500" stroke-width="1.27288" stroke-linecap="round"/>
<path d="M11.8338 2.75302V5.09004L11.4672 8.65284H10.7913L10.4362 5.1015V2.75302H11.8338ZM11.8796 9.45476V10.9097H10.3903V9.45476H11.8796Z" fill="#FF4500"/>
</svg>
