<svg width="19" height="24" viewBox="0 0 19 24" fill="none" xmlns="http://www.w3.org/2000/svg">
<path d="M11.4286 2.85714C11.4286 2.53714 11.68 2.28571 12 2.28571C12.32 2.28571 12.5714 2.53714 12.5714 2.85714C12.5714 3.17714 12.32 3.42857 12 3.42857C11.68 3.42857 11.4286 3.17714 11.4286 2.85714ZM18.2857 19.4286C18.2857 21.9543 16.24 24 13.7143 24H4.57143C2.04572 24 0 21.9543 0 19.4286C0 16.9029 2.04572 14.8571 4.57143 14.8571H4.72C1.90857 13.3029 0 10.2857 0 6.85714C0 4.12571 1.21143 1.68 3.10857 0H15.1772C17.0743 1.68 18.2857 4.12571 18.2857 6.85714C18.2857 10.2857 16.3772 13.3029 13.5657 14.8571H13.7143C16.24 14.8571 18.2857 16.9029 18.2857 19.4286ZM14.2857 11.4286C14.2857 10.1714 13.2686 9.14286 12 9.14286C10.7314 9.14286 9.71429 10.1714 9.71429 11.4286C9.71429 12.6971 10.7429 13.7143 12 13.7143C13.2572 13.7143 14.2857 12.6971 14.2857 11.4286ZM14.8572 4.57143C13.6 4.57143 12.5714 5.6 12.5714 6.85714C12.5714 8.12571 13.6 9.14286 14.8572 9.14286C16.1143 9.14286 17.1429 8.12571 17.1429 6.85714C17.1429 5.6 16.1257 4.57143 14.8572 4.57143ZM10.2857 2.85714C10.2857 3.80571 11.0514 4.57143 12 4.57143C12.9486 4.57143 13.7143 3.80571 13.7143 2.85714C13.7143 1.90857 12.9486 1.14286 12 1.14286C11.0514 1.14286 10.2857 1.90857 10.2857 2.85714ZM9.14286 4.57143C7.88572 4.57143 6.85715 5.6 6.85715 6.85714C6.85715 8.12571 7.88572 9.14286 9.14286 9.14286C10.4 9.14286 11.4286 8.12571 11.4286 6.85714C11.4286 5.6 10.4114 4.57143 9.14286 4.57143ZM4.57143 2.85714C4.57143 3.80571 5.33715 4.57143 6.28572 4.57143C7.23429 4.57143 8 3.80571 8 2.85714C8 1.90857 7.23429 1.14286 6.28572 1.14286C5.33715 1.14286 4.57143 1.90857 4.57143 2.85714ZM3.42857 9.14286C4.69715 9.14286 5.71429 8.12571 5.71429 6.85714C5.71429 5.6 4.69715 4.57143 3.42857 4.57143C2.16 4.57143 1.14286 5.6 1.14286 6.85714C1.14286 8.12571 2.17143 9.14286 3.42857 9.14286ZM6.28572 13.7143C7.55429 13.7143 8.57143 12.6971 8.57143 11.4286C8.57143 10.1714 7.55429 9.14286 6.28572 9.14286C5.01715 9.14286 4 10.1714 4 11.4286C4 12.6971 5.02857 13.7143 6.28572 13.7143ZM8 19.4286C8 17.5314 6.46858 16 4.57143 16C2.67429 16 1.14286 17.5314 1.14286 19.4286C1.14286 21.3257 2.67429 22.8571 4.57143 22.8571C6.46858 22.8571 8 21.3257 8 19.4286ZM17.1429 19.4286C17.1429 17.5314 15.6114 16 13.7143 16C11.8171 16 10.2857 17.5314 10.2857 19.4286C10.2857 21.3257 11.8171 22.8571 13.7143 22.8571C15.6114 22.8571 17.1429 21.3257 17.1429 19.4286ZM14.8572 7.42857C15.1772 7.42857 15.4286 7.17714 15.4286 6.85714C15.4286 6.53714 15.1772 6.28571 14.8572 6.28571C14.5372 6.28571 14.2857 6.53714 14.2857 6.85714C14.2857 7.17714 14.5372 7.42857 14.8572 7.42857ZM12 10.8571C11.68 10.8571 11.4286 11.1086 11.4286 11.4286C11.4286 11.7486 11.68 12 12 12C12.32 12 12.5714 11.7486 12.5714 11.4286C12.5714 11.1086 12.32 10.8571 12 10.8571ZM13.7143 18.2857C13.0857 18.2857 12.5714 18.8 12.5714 19.4286C12.5714 20.0571 13.0857 20.5714 13.7143 20.5714C14.3429 20.5714 14.8572 20.0571 14.8572 19.4286C14.8572 18.8 14.3429 18.2857 13.7143 18.2857ZM9.14286 7.42857C9.46286 7.42857 9.71429 7.17714 9.71429 6.85714C9.71429 6.53714 9.46286 6.28571 9.14286 6.28571C8.82286 6.28571 8.57143 6.53714 8.57143 6.85714C8.57143 7.17714 8.82286 7.42857 9.14286 7.42857ZM4.57143 18.2857C3.94286 18.2857 3.42857 18.8 3.42857 19.4286C3.42857 20.0571 3.94286 20.5714 4.57143 20.5714C5.2 20.5714 5.71429 20.0571 5.71429 19.4286C5.71429 18.8 5.2 18.2857 4.57143 18.2857ZM3.42857 6.28571C3.10857 6.28571 2.85714 6.53714 2.85714 6.85714C2.85714 7.17714 3.10857 7.42857 3.42857 7.42857C3.74857 7.42857 4 7.17714 4 6.85714C4 6.53714 3.74857 6.28571 3.42857 6.28571ZM6.28572 3.42857C6.60572 3.42857 6.85715 3.17714 6.85715 2.85714C6.85715 2.53714 6.60572 2.28571 6.28572 2.28571C5.96572 2.28571 5.71429 2.53714 5.71429 2.85714C5.71429 3.17714 5.96572 3.42857 6.28572 3.42857ZM6.85715 11.4286C6.85715 11.1086 6.60572 10.8571 6.28572 10.8571C5.96572 10.8571 5.71429 11.1086 5.71429 11.4286C5.71429 11.7486 5.96572 12 6.28572 12C6.60572 12 6.85715 11.7486 6.85715 11.4286Z" fill="black"/>
</svg>
