<svg width="25" height="24" viewBox="0 0 25 24" fill="none" xmlns="http://www.w3.org/2000/svg">
<path d="M5.24939 10.589C5.24939 11.009 4.91943 11.339 4.49948 11.339C4.07952 11.339 3.74956 11.009 3.74956 10.589C3.74956 10.1691 4.07952 9.83913 4.49948 9.83913C4.91943 9.83913 5.24939 10.1691 5.24939 10.589ZM8.24904 15.8384C7.82909 15.8384 7.49913 16.1684 7.49913 16.5883C7.49913 17.0083 7.82909 17.3383 8.24904 17.3383C8.66899 17.3383 8.99895 17.0083 8.99895 16.5883C8.99895 16.1684 8.66899 15.8384 8.24904 15.8384ZM8.24904 6.08956C8.66899 6.08956 8.99895 5.7596 8.99895 5.33965C8.99895 4.9197 8.66899 4.58974 8.24904 4.58974C7.82909 4.58974 7.49913 4.9197 7.49913 5.33965C7.49913 5.7596 7.82909 6.08956 8.24904 6.08956ZM15.7482 6.08956C16.1681 6.08956 16.4981 5.7596 16.4981 5.33965C16.4981 4.9197 16.1681 4.58974 15.7482 4.58974C15.3282 4.58974 14.9983 4.9197 14.9983 5.33965C14.9983 5.7596 15.3282 6.08956 15.7482 6.08956ZM11.9986 9.83913C11.5786 9.83913 11.2487 10.1691 11.2487 10.589C11.2487 11.009 11.5786 11.339 11.9986 11.339C12.4186 11.339 12.7485 11.009 12.7485 10.589C12.7485 10.1691 12.4186 9.83913 11.9986 9.83913ZM23.9972 10.589C23.9972 17.2183 18.6278 22.5876 11.9986 22.5876C5.36937 22.5876 0 17.2183 0 10.589C0 7.00446 1.58981 3.79483 4.07952 1.59009H19.9177C22.4074 3.79483 23.9972 7.00446 23.9972 10.589ZM13.4984 5.33965C13.4984 6.58451 14.5033 7.58939 15.7482 7.58939C16.993 7.58939 17.9979 6.58451 17.9979 5.33965C17.9979 4.0948 16.993 3.08991 15.7482 3.08991C14.5033 3.08991 13.4984 4.0948 13.4984 5.33965ZM5.9993 5.33965C5.9993 6.58451 7.00418 7.58939 8.24904 7.58939C9.49389 7.58939 10.4988 6.58451 10.4988 5.33965C10.4988 4.0948 9.49389 3.08991 8.24904 3.08991C7.00418 3.08991 5.9993 4.0948 5.9993 5.33965ZM4.49948 13.5887C6.16428 13.5887 7.49913 12.2538 7.49913 10.589C7.49913 8.93923 6.16428 7.58939 4.49948 7.58939C2.83467 7.58939 1.49983 8.93923 1.49983 10.589C1.49983 12.2538 2.84967 13.5887 4.49948 13.5887ZM11.2487 16.5883C11.2487 14.9385 9.91384 13.5887 8.24904 13.5887C6.58423 13.5887 5.24939 14.9385 5.24939 16.5883C5.24939 18.2531 6.59923 19.588 8.24904 19.588C9.89885 19.588 11.2487 18.2531 11.2487 16.5883ZM11.9986 13.5887C13.6634 13.5887 14.9983 12.2538 14.9983 10.589C14.9983 8.93923 13.6634 7.58939 11.9986 7.58939C10.3338 7.58939 8.99895 8.93923 8.99895 10.589C8.99895 12.2538 10.3488 13.5887 11.9986 13.5887ZM18.7478 16.5883C18.7478 14.9385 17.413 13.5887 15.7482 13.5887C14.0834 13.5887 12.7485 14.9385 12.7485 16.5883C12.7485 18.2531 14.0984 19.588 15.7482 19.588C17.398 19.588 18.7478 18.2531 18.7478 16.5883ZM22.4974 10.589C22.4974 8.93923 21.1625 7.58939 19.4977 7.58939C17.8329 7.58939 16.4981 8.93923 16.4981 10.589C16.4981 12.2538 17.8479 13.5887 19.4977 13.5887C21.1475 13.5887 22.4974 12.2538 22.4974 10.589ZM19.4977 9.83913C19.0778 9.83913 18.7478 10.1691 18.7478 10.589C18.7478 11.009 19.0778 11.339 19.4977 11.339C19.9177 11.339 20.2476 11.009 20.2476 10.589C20.2476 10.1691 19.9177 9.83913 19.4977 9.83913ZM15.7482 15.8384C15.3282 15.8384 14.9983 16.1684 14.9983 16.5883C14.9983 17.0083 15.3282 17.3383 15.7482 17.3383C16.1681 17.3383 16.4981 17.0083 16.4981 16.5883C16.4981 16.1684 16.1681 15.8384 15.7482 15.8384Z" fill="black"/>
</svg>
