<svg width="24" height="24" viewBox="0 0 24 24" fill="none" xmlns="http://www.w3.org/2000/svg">
<g clip-path="url(#clip0_1_3283)">
<mask id="path-1-inside-1_1_3283" fill="white">
<path d="M9.79639 0.768311C11.0945 -0.257393 12.9281 -0.255828 14.2251 0.77124L21.9204 6.86499C22.7601 7.51795 23.3013 8.53728 23.3013 9.68335V20.4314C23.3012 22.4023 21.7029 23.9998 19.7319 23.9998H4.26709C2.29637 23.9995 0.698838 22.4021 0.69873 20.4314V9.68335C0.69873 8.50249 1.27207 7.45502 2.15576 6.80542L9.79639 0.768311Z"/>
</mask>
<path d="M9.79639 0.768311L10.7263 1.94526L10.7263 1.94525L9.79639 0.768311ZM14.2251 0.77124L15.1563 -0.404707L15.1563 -0.404721L14.2251 0.77124ZM21.9204 6.86499L20.9892 8.04098L20.9996 8.04912L21.9204 6.86499ZM23.3013 20.4314L24.8013 20.4315V20.4314H23.3013ZM4.26709 23.9998L4.26691 25.4998H4.26709V23.9998ZM0.69873 20.4314H-0.80127V20.4315L0.69873 20.4314ZM2.15576 6.80542L3.04419 8.01401L3.06523 7.99855L3.08571 7.98237L2.15576 6.80542ZM9.79639 0.768311L10.7263 1.94525C11.4785 1.35097 12.5416 1.35151 13.2939 1.9472L14.2251 0.77124L15.1563 -0.404721C13.3145 -1.86317 10.7105 -1.86575 8.86643 -0.408626L9.79639 0.768311ZM14.2251 0.77124L13.2939 1.94719L20.9892 8.04094L21.9204 6.86499L22.8516 5.68904L15.1563 -0.404707L14.2251 0.77124ZM21.9204 6.86499L20.9996 8.04912C21.4905 8.43083 21.8013 9.0209 21.8013 9.68335H23.3013H24.8013C24.8013 8.05366 24.0297 6.60506 22.8412 5.68086L21.9204 6.86499ZM23.3013 9.68335H21.8013V20.4314H23.3013H24.8013V9.68335H23.3013ZM23.3013 20.4314L21.8013 20.4313C21.8012 21.5734 20.8749 22.4998 19.7319 22.4998V23.9998V25.4998C22.5308 25.4998 24.8011 23.2312 24.8013 20.4315L23.3013 20.4314ZM19.7319 23.9998V22.4998H4.26709V23.9998V25.4998H19.7319V23.9998ZM4.26709 23.9998L4.26727 22.4998C3.12474 22.4996 2.19879 21.5736 2.19873 20.4313L0.69873 20.4314L-0.80127 20.4315C-0.801116 23.2307 1.468 25.4994 4.26691 25.4998L4.26709 23.9998ZM0.69873 20.4314H2.19873V9.68335H0.69873H-0.80127V20.4314H0.69873ZM0.69873 9.68335H2.19873C2.19873 8.99946 2.5288 8.39287 3.04419 8.01401L2.15576 6.80542L1.26733 5.59683C0.0153437 6.51716 -0.80127 8.00553 -0.80127 9.68335H0.69873ZM2.15576 6.80542L3.08571 7.98237L10.7263 1.94526L9.79639 0.768311L8.86644 -0.408636L1.22582 5.62847L2.15576 6.80542Z" fill="#85BF4F" mask="url(#path-1-inside-1_1_3283)"/>
<path d="M10.2156 15.8279H13.7849C14.356 15.8281 14.819 16.291 14.8191 16.8621V23.2498H9.1814V16.8621C9.18151 16.291 9.64447 15.828 10.2156 15.8279Z" stroke="#85BF4F" stroke-width="1.5"/>
</g>
<defs>
<clipPath id="clip0_1_3283">
<rect width="24" height="24" fill="white"/>
</clipPath>
</defs>
</svg>
