<svg width="24" height="18" viewBox="0 0 24 18" fill="none" xmlns="http://www.w3.org/2000/svg">
<path d="M20.4588 13.9221C14.6064 14.6661 6.50424 14.2321 3.18474 13.9221C0.674738 13.7399 0.584704 11.2717 0.853436 10.0604C0.960683 9.39552 1.18103 8.01408 1.20443 7.80723C1.23367 7.54866 1.61344 6.63261 2.22766 6.36378C3.02846 6.0133 3.21237 5.32243 3.39761 4.93617L4.37455 2.67885C5.06258 0.865044 6.81564 0.654784 7.60616 0.776379H16.3628C18.0099 0.797228 18.8734 2.05338 19.0992 2.67885C19.5853 3.88209 20.2534 5.80112 21.2843 6.36378C21.7469 6.61625 22.1688 7.35115 22.2475 7.80723L22.6434 10.0604C23.2036 12.7886 21.4204 13.7716 20.4588 13.9221Z" stroke="#48662B" stroke-width="1.5"/>
<path d="M2.59839 13.8706C3.02268 13.9769 3.50228 14.0539 3.97925 14.1079C4.63838 14.1826 5.32324 14.2165 5.9021 14.23V16.7798C5.9021 16.9039 5.80158 17.0054 5.67749 17.0054H2.823C2.69894 17.0053 2.59839 16.9039 2.59839 16.7798V13.8706Z" stroke="#48662B" stroke-width="1.5"/>
<path d="M21.3394 13.8706C20.9151 13.9769 20.4355 14.0539 19.9585 14.1079C19.2994 14.1826 18.6145 14.2165 18.0356 14.23V16.7798C18.0356 16.9039 18.1362 17.0054 18.2603 17.0054H21.1147C21.2388 17.0053 21.3394 16.9039 21.3394 16.7798V13.8706Z" stroke="#48662B" stroke-width="1.5"/>
<path d="M9.55737 7.86828L13.1305 3.69019L12.0564 6.90201H13.943L10.4571 11.1073L11.3942 7.86828H9.55737Z" fill="#48662B" stroke="#48662B" stroke-linejoin="round"/>
</svg>
