<svg width="20" height="22" viewBox="0 0 20 22" fill="none" xmlns="http://www.w3.org/2000/svg">
<path d="M17.7633 3.46595L10.5522 0.375468C9.99219 0.135477 9.35883 0.1328 8.79685 0.368051L1.38134 3.47221C0.544618 3.82247 0 4.64086 0 5.54794V13.5015C0 15.7518 0.45005 16.8769 1.35015 17.552L7.87588 21.6024C9.31604 22.3225 10.7262 21.9024 11.2513 21.6024C12.6014 20.8523 15.7067 18.9921 17.3269 17.552C18.9471 16.1118 19.1271 14.1766 19.1271 13.5015V5.53426C19.1271 4.63409 18.5907 3.82054 17.7633 3.46595Z" fill="#FF4500" fill-opacity="0.2"/>
<path d="M5.62561 10.3511L7.70343 12.4289C8.04943 12.7749 8.60846 12.7811 8.96207 12.4429L13.5015 8.10083" stroke="#FF4500" stroke-width="1.5" stroke-linecap="round" stroke-linejoin="round"/>
</svg>
