<svg width="32" height="32" viewBox="0 0 32 32" fill="none" xmlns="http://www.w3.org/2000/svg">
<path d="M28.9413 15.0495H22.9806C21.2237 15.0495 20.157 16.7754 20.157 18.6575C20.157 21.5438 21.8825 22.422 22.9806 22.422H28.9413M28.9413 15.0495C29.5165 14.9972 30.6668 15.2377 30.6668 16.6181V21.0103C30.6145 21.4809 30.1962 22.422 28.9413 22.422M28.9413 15.0495V12.6966C28.9413 8.80637 25.8041 7.83381 24.2355 7.83381M28.9413 22.422V24.6181C28.9413 26.2913 28.0002 29.6377 24.2355 29.6377C20.4708 29.6377 10.8498 29.6377 6.50997 29.6377C4.78448 29.5332 1.3335 28.3828 1.3335 24.6181V12.6966C1.38578 11.0234 2.49428 7.70832 6.50997 7.83381M6.50997 7.83381H24.2355M6.50997 7.83381L17.9609 1.71633C18.9021 1.24573 20.0002 0.93206 20.9413 2.50063L24.2355 7.83381M6.82369 23.8338H13.5688M23.4511 18.8144H23.608" stroke="#616161" stroke-width="2" stroke-linecap="round" stroke-linejoin="round"/>
</svg>
